<?xml version="1.0" encoding="UTF-8"?>
<svg version="1.1" xmlns="http://www.w3.org/2000/svg" width="64" height="64">
<path d="M0 0 C4.31424346 3.62788654 6.35671579 6.68692528 7.6875 12.1875 C8.034051 16.71865432 7.03734875 20.39970927 4.75 24.3125 C1.03849547 28.37748115 -2.53947356 30.28232336 -7.87890625 31.21875 C-12.74004773 31.41095329 -17.09183557 30.10309385 -20.85546875 26.98046875 C-24.17137075 23.29505274 -26.20104739 19.35980026 -26.28125 14.3671875 C-25.90512794 9.42118239 -24.49449783 6.17082174 -21.25 2.3125 C-14.26116509 -3.07472691 -7.99332115 -4.15037829 0 0 Z M-17.25 6.3125 C-19.34111708 8.6824327 -20.20569007 10.32172987 -20.34765625 13.49609375 C-20.10452686 17.10745464 -19.62395394 19.68924344 -17.75 22.8125 C-14.04681858 25.03440885 -10.54077281 25.50439503 -6.25 25.3125 C-3.0501048 24.0603671 -1.62933865 22.74241714 0.625 20.1875 C2.25229587 16.028855 1.8926107 12.58730225 0.75 8.3125 C-0.95434725 5.47192125 -2.15831642 4.6042958 -5.33984375 3.75390625 C-10.1762305 2.97332469 -13.40931938 2.92366416 -17.25 6.3125 Z " fill="#FFFFFF" transform="translate(41.25,17.6875)"/>
<path d="M0 0 C1.67542976 0.28604898 3.34385343 0.61781233 5 1 C5 3.97 5 6.94 5 10 C3.34385343 10.38218767 1.67542976 10.71395102 0 11 C-1 10 -1 10 -1.1328125 7.96875 C-1.13023438 7.1540625 -1.12765625 6.339375 -1.125 5.5 C-1.12757812 4.6853125 -1.13015625 3.870625 -1.1328125 3.03125 C-1 1 -1 1 0 0 Z " fill="#FFFFFF" transform="translate(30,53)"/>
<path d="M0 0 C-0.30595176 3.56943715 -1.02424641 5.03014419 -3.3125 7.875 C-6 10 -6 10 -8.3125 9.8125 C-8.869375 9.544375 -9.42625 9.27625 -10 9 C-9.65544802 5.89903219 -9.15182706 4.20062862 -7.25 1.6875 C-4.58761061 -0.30929204 -3.25047681 -0.36116409 0 0 Z " fill="#FFFFFF" transform="translate(18,46)"/>
<path d="M0 0 C1.23556641 0.01740234 1.23556641 0.01740234 2.49609375 0.03515625 C3.32238281 0.04417969 4.14867187 0.05320312 5 0.0625 C5.63808594 0.07410156 6.27617188 0.08570312 6.93359375 0.09765625 C7.31578142 1.75380282 7.64754477 3.42222649 7.93359375 5.09765625 C6.93359375 6.09765625 6.93359375 6.09765625 4.8671875 6.1953125 C4.04347656 6.18371094 3.21976563 6.17210937 2.37109375 6.16015625 C1.54480469 6.15113281 0.71851563 6.14210938 -0.1328125 6.1328125 C-0.77089844 6.12121094 -1.40898438 6.10960937 -2.06640625 6.09765625 C-2.44859392 4.44150968 -2.78035727 2.77308601 -3.06640625 1.09765625 C-2.06640625 0.09765625 -2.06640625 0.09765625 0 0 Z " fill="#FFFFFF" transform="translate(56.06640625,28.90234375)"/>
<path d="M0 0 C1.23556641 0.01740234 1.23556641 0.01740234 2.49609375 0.03515625 C3.32238281 0.04417969 4.14867187 0.05320312 5 0.0625 C5.63808594 0.07410156 6.27617187 0.08570312 6.93359375 0.09765625 C7.31578142 1.75380282 7.64754477 3.42222649 7.93359375 5.09765625 C6.93359375 6.09765625 6.93359375 6.09765625 4.8671875 6.1953125 C4.04347656 6.18371094 3.21976562 6.17210937 2.37109375 6.16015625 C1.54480469 6.15113281 0.71851563 6.14210938 -0.1328125 6.1328125 C-0.77089844 6.12121094 -1.40898437 6.10960937 -2.06640625 6.09765625 C-2.44859392 4.44150968 -2.78035727 2.77308601 -3.06640625 1.09765625 C-2.06640625 0.09765625 -2.06640625 0.09765625 0 0 Z " fill="#FFFFFF" transform="translate(3.06640625,28.90234375)"/>
<path d="M0 0 C0.556875 0.268125 1.11375 0.53625 1.6875 0.8125 C1.34294802 3.91346781 0.83932706 5.61187138 -1.0625 8.125 C-3.72488939 10.12179204 -5.06202319 10.17366409 -8.3125 9.8125 C-8.00654824 6.24306285 -7.28825359 4.78235581 -5 1.9375 C-2.3125 -0.1875 -2.3125 -0.1875 0 0 Z " fill="#FFFFFF" transform="translate(54.3125,8.1875)"/>
<path d="M0 0 C4.25721298 0.47302366 6.32946082 2.81018931 9 6 C9 7.32 9 8.64 9 10 C6.8125 10.375 6.8125 10.375 4 10 C1.125 7.25 1.125 7.25 -1 4 C-0.8125 1.625 -0.8125 1.625 0 0 Z " fill="#FFFFFF" transform="translate(9,8)"/>
<path d="M0 0 C1.67542976 0.28604898 3.34385343 0.61781233 5 1 C5 3.97 5 6.94 5 10 C3.34385343 10.38218767 1.67542976 10.71395102 0 11 C-1 10 -1 10 -1.1328125 7.96875 C-1.13023438 7.1540625 -1.12765625 6.339375 -1.125 5.5 C-1.12757812 4.6853125 -1.13015625 3.870625 -1.1328125 3.03125 C-1 1 -1 1 0 0 Z " fill="#FFFFFF" transform="translate(30,0)"/>
<path d="M0 0 C4.83256305 0.41421969 6.82679218 2.46413986 10 6 C9.34 7.32 8.68 8.64 8 10 C4.63362603 8.5572683 2.33497429 6.83532593 0 4 C0 2.68 0 1.36 0 0 Z " fill="#FFFFFF" transform="translate(46,46)"/>
</svg>
